<svg id="visual" viewBox="0 0 900 600" width="900" height="600" xmlns="http://www.w3.org/2000/svg" xmlns:xlink="http://www.w3.org/1999/xlink" version="1.1"><rect width="900" height="600" fill="#001829"></rect><g><g transform="translate(242 180)"><path d="M0 -71.4L55.9 -44.5L69.7 15.9L31 64.4L-31 64.4L-69.7 15.9L-55.9 -44.5Z" fill="#297EA6"></path></g><g transform="translate(600 241)"><path d="M0 -38L29.7 -23.7L37 8.5L16.5 34.2L-16.5 34.2L-37 8.5L-29.7 -23.7Z" fill="#297EA6"></path></g><g transform="translate(573 85)"><path d="M0 -51L39.9 -31.8L49.7 11.3L22.1 45.9L-22.1 45.9L-49.7 11.3L-39.9 -31.8Z" fill="#297EA6"></path></g><g transform="translate(634 525)"><path d="M0 -47L36.7 -29.3L45.8 10.5L20.4 42.3L-20.4 42.3L-45.8 10.5L-36.7 -29.3Z" fill="#297EA6"></path></g><g transform="translate(112 408)"><path d="M0 -64L50 -39.9L62.4 14.2L27.8 57.7L-27.8 57.7L-62.4 14.2L-50 -39.9Z" fill="#297EA6"></path></g><g transform="translate(320 586)"><path d="M0 -66L51.6 -41.2L64.3 14.7L28.6 59.5L-28.6 59.5L-64.3 14.7L-51.6 -41.2Z" fill="#297EA6"></path></g><g transform="translate(758 18)"><path d="M0 -46L36 -28.7L44.8 10.2L20 41.4L-20 41.4L-44.8 10.2L-36 -28.7Z" fill="#297EA6"></path></g><g transform="translate(772 575)"><path d="M0 -66L51.6 -41.2L64.3 14.7L28.6 59.5L-28.6 59.5L-64.3 14.7L-51.6 -41.2Z" fill="#297EA6"></path></g><g transform="translate(829 270)"><path d="M0 -50L39.1 -31.2L48.7 11.1L21.7 45L-21.7 45L-48.7 11.1L-39.1 -31.2Z" fill="#297EA6"></path></g><g transform="translate(125 67)"><path d="M0 -48L37.5 -29.9L46.8 10.7L20.8 43.2L-20.8 43.2L-46.8 10.7L-37.5 -29.9Z" fill="#297EA6"></path></g><g transform="translate(58 225)"><path d="M0 -31L24.2 -19.3L30.2 6.9L13.5 27.9L-13.5 27.9L-30.2 6.9L-24.2 -19.3Z" fill="#297EA6"></path></g><g transform="translate(701 348)"><path d="M0 -39L30.5 -24.3L38 8.7L16.9 35.1L-16.9 35.1L-38 8.7L-30.5 -24.3Z" fill="#297EA6"></path></g><g transform="translate(402 30)"><path d="M0 -26L20.3 -16.2L25.3 5.8L11.3 23.4L-11.3 23.4L-25.3 5.8L-20.3 -16.2Z" fill="#297EA6"></path></g><g transform="translate(346 289)"><path d="M0 -58L45.3 -36.2L56.5 12.9L25.2 52.3L-25.2 52.3L-56.5 12.9L-45.3 -36.2Z" fill="#297EA6"></path></g><g transform="translate(847 446)"><path d="M0 -47L36.7 -29.3L45.8 10.5L20.4 42.3L-20.4 42.3L-45.8 10.5L-36.7 -29.3Z" fill="#297EA6"></path></g><g transform="translate(20 576)"><path d="M0 -58L45.3 -36.2L56.5 12.9L25.2 52.3L-25.2 52.3L-56.5 12.9L-45.3 -36.2Z" fill="#297EA6"></path></g><g transform="translate(514 378)"><path d="M0 -51L39.9 -31.8L49.7 11.3L22.1 45.9L-22.1 45.9L-49.7 11.3L-39.9 -31.8Z" fill="#297EA6"></path></g><g transform="translate(881 107)"><path d="M0 -70L54.7 -43.6L68.2 15.6L30.4 63.1L-30.4 63.1L-68.2 15.6L-54.7 -43.6Z" fill="#297EA6"></path></g><g transform="translate(479 561)"><path d="M0 -63L49.3 -39.3L61.4 14L27.3 56.8L-27.3 56.8L-61.4 14L-49.3 -39.3Z" fill="#297EA6"></path></g><g transform="translate(430 171)"><path d="M0 -62L48.5 -38.7L60.4 13.8L26.9 55.9L-26.9 55.9L-60.4 13.8L-48.5 -38.7Z" fill="#297EA6"></path></g><g transform="translate(271 422)"><path d="M0 -26L20.3 -16.2L25.3 5.8L11.3 23.4L-11.3 23.4L-25.3 5.8L-20.3 -16.2Z" fill="#297EA6"></path></g><g transform="translate(178 552)"><path d="M0 -60L46.9 -37.4L58.5 13.4L26 54.1L-26 54.1L-58.5 13.4L-46.9 -37.4Z" fill="#297EA6"></path></g></g></svg>